<?xml version="1.0" encoding="utf-8"?>
<svg enable-background="new 0 0 100 100" height="100" viewBox="0 0 100 100" width="100" xmlns="http://www.w3.org/2000/svg">
  <rect x="13.056" y="11.679" width="75.659" height="76.866" style="stroke: rgb(0, 0, 0); fill: rgb(255, 255, 255); stroke-opacity: 0;"/>
  <g fill="#ea2429">
    <path d="m44.9 71.8c-.7 1-1.4 1.6-2.1 1.6-.4 0-.7-.3-.8-.8 0-.1 0-.5 0-1.3v-13.6h-3.3v14.6c0 1.3.1 2.2.3 2.7.3.9 1.1 1.4 2.2 1.4 1.2 0 2.5-.7 3.8-2.3v2h3.3v-18.4h-3.3v14.1z" style="fill: rgb(0, 0, 0);"/>
    <path d="m26.5 54.9h3.9v21.2h3.7v-21.2h4v-3.5h-11.6z" style="fill: rgb(0, 0, 0);"/>
    <path d="m57.9 57.5c-1.2 0-2.4.7-3.4 2v-8.1h-3.3v24.7h3.3v-1.8c1.1 1.4 2.3 2 3.4 2 1.3 0 2.2-.7 2.7-2.1.2-.8.3-2 .3-3.7v-7.3c0-1.7-.1-3-.3-3.7-.5-1.3-1.4-2-2.7-2zm-.3 13.3c0 1.7-.5 2.5-1.5 2.5-.5 0-1.1-.3-1.7-.8v-11.2c.6-.5 1.1-.8 1.7-.8 1 0 1.5.9 1.5 2.5z" style="fill: rgb(0, 0, 0);"/>
    <path d="m89.2 0h-78.4c-6 0-10.8 4.8-10.8 10.8v78.4c0 6 4.8 10.8 10.8 10.8h78.4c6 0 10.8-4.8 10.8-10.8v-78.4c0-6-4.8-10.8-10.8-10.8zm-32.2 23.4v-.4h3.4v13.7 1.3c.1.5.3.8.8.8.7 0 1.4-.5 2.1-1.6v-13.8-.4h3.4v18.6.4h-3.4v-2c-1.3 1.5-2.6 2.3-3.9 2.3-1.1 0-1.8-.4-2.2-1.4-.2-.6-.3-1.5-.3-2.8v-14.7zm-12.8 6c0-.1 0-.1 0-.2v-.2c0-2 .3-3.4 1.1-4.4.9-1.3 2.2-1.9 3.9-1.9s3 .6 3.9 1.9c.7.9 1 2.4 1 4.4v6.5.2.3c0 2-.3 3.4-1 4.4-.9 1.3-2.2 1.9-3.9 1.9s-3-.6-3.9-1.9c-.7-.9-1.1-2.4-1.1-4.4zm-12.9-12.8h3.9l2.7 9.8 2.5-9.8h3.8l-.1.4h.1l-4.5 14.8v9.7.5h-3.7v-10.1c-.3-1.8-1.1-4.4-2.3-7.9-.8-2.3-1.6-4.6-2.4-7h.1c0-.1-.1-.3-.1-.4zm45.3 60.6c-.7 2.9-3.1 5.1-6 5.4-6.8.8-13.8.8-20.7.8s-13.8 0-20.7-.8c-2.9-.3-5.3-2.5-6-5.4-1-4.2-1-8.7-1-13.1 0-4.3 0-8.9 1-13.1.7-2.9 3.1-5.1 6-5.4 6.8-.8 13.8-.8 20.7-.8s13.8 0 20.7.8c2.9.3 5.3 2.5 6 5.4 1 4.2 1 8.7 1 13.1s0 8.9-1 13.1z" style="fill: rgb(0, 0, 0);"/>
    <path d="m68.5 57.5c-1.7 0-3 .6-4 1.9-.7.9-1 2.4-1 4.3v6.5c0 2 .4 3.4 1.1 4.3 1 1.3 2.3 1.9 4 1.9s3.1-.7 4-2c.4-.6.7-1.3.8-2 0-.3.1-1.1.1-2.1v-.5h-3.4c0 1.3 0 2.1-.1 2.3-.2.9-.7 1.3-1.5 1.3-1.1 0-1.7-.8-1.7-2.6v-3.3h6.7v-3.8c0-2-.3-3.4-1-4.3-1-1.3-2.3-1.9-4-1.9zm1.7 7.2h-3.3v-1.7c0-1.7.6-2.6 1.7-2.6s1.7.9 1.7 2.6v1.7z" style="fill: rgb(0, 0, 0);"/>
    <path d="m49.2 38.8c1 0 1.5-.8 1.6-2.3v-7.7c0-1.7-.5-2.6-1.6-2.6-1 0-1.5.8-1.6 2.3v7.7c0 1.7.5 2.6 1.6 2.6z" style="fill: rgb(0, 0, 0);"/>
  </g>
</svg>